<svg width="21" height="21" viewBox="0 0 21 21" fill="none" xmlns="http://www.w3.org/2000/svg">
<g clip-path="url(#clip0_68_3649)">
<path d="M20.512 10.6962C20.512 9.83584 20.4422 9.20801 20.2911 8.55693H10.4667V12.4402H16.2334C16.1172 13.4052 15.4893 14.8585 14.0941 15.8351L14.0746 15.9651L17.1809 18.3715L17.3961 18.393C19.3726 16.5676 20.512 13.8819 20.512 10.6962Z" fill="#4285F4"/>
<path d="M10.4655 20.9282C13.2907 20.9282 15.6625 19.998 17.3949 18.3936L14.0929 15.8357C13.2093 16.4519 12.0234 16.8821 10.4655 16.8821C7.69837 16.8821 5.34983 15.0568 4.51264 12.5338L4.38992 12.5443L1.15994 15.044L1.1177 15.1614C2.83841 18.5796 6.37289 20.9282 10.4655 20.9282Z" fill="#34A853"/>
<path d="M4.51105 12.533C4.29015 11.882 4.16231 11.1843 4.16231 10.4635C4.16231 9.74262 4.29015 9.04505 4.49943 8.39397L4.49358 8.25531L1.22312 5.71544L1.11612 5.76634C0.406933 7.1848 0 8.77766 0 10.4635C0 12.1494 0.406933 13.7421 1.11612 15.1606L4.51105 12.533Z" fill="#FBBC05"/>
<path d="M10.4655 4.04601C12.4303 4.04601 13.7557 4.89474 14.5115 5.60401L17.4646 2.72061C15.6509 1.03477 13.2907 0 10.4655 0C6.37289 0 2.83841 2.34854 1.1177 5.76672L4.50101 8.39435C5.34983 5.8714 7.69837 4.04601 10.4655 4.04601Z" fill="#EB4335"/>
</g>
<defs>
<clipPath id="clip0_68_3649">
<rect width="20.3682" height="20.8434" fill="white" transform="scale(1.00751)"/>
</clipPath>
</defs>
</svg>
