<svg width="33" height="33" viewBox="0 0 33 33" fill="none" xmlns="http://www.w3.org/2000/svg">
<path d="M10.9993 30.2496H21.9993C25.0243 30.2496 27.4993 27.7746 27.4993 24.7496V9.62464C27.4993 6.87465 25.5743 4.67465 22.9618 4.26215C22.4118 3.29965 21.4493 2.74965 20.3493 2.74965H12.6493C11.5493 2.74965 10.5868 3.29965 10.0368 4.26215C7.4243 4.67465 5.4993 6.87465 5.4993 9.62464V24.7496C5.4993 27.7746 7.9743 30.2496 10.9993 30.2496ZM12.3743 5.63715C12.3743 5.63715 12.5118 5.49965 12.6493 5.49965H20.4868L20.6243 5.63715V6.59965C20.6243 6.73715 20.4868 6.87465 20.3493 6.87465H12.6493C12.5118 6.87465 12.3743 6.73715 12.3743 6.59965V5.63715ZM8.2493 9.62464C8.2493 8.52464 8.7993 7.69965 9.6243 7.14965V7.28715C9.6243 7.42465 9.7618 7.56215 9.7618 7.69965C9.7618 7.69965 9.7618 7.83715 9.8993 7.83715C9.8993 7.97465 10.0368 8.11215 10.0368 8.11215L10.1743 8.24965C10.1743 8.38715 10.3118 8.38715 10.4493 8.52464L10.5868 8.66215L10.8618 8.93714L10.9993 9.07464C11.1368 9.07464 11.1368 9.21214 11.2743 9.21214C11.2743 9.21214 11.4118 9.21214 11.4118 9.34964C11.5493 9.34964 11.6868 9.48714 11.8243 9.48714H11.9618C12.2368 9.62464 12.3743 9.62464 12.6493 9.62464H21.1743C21.3118 9.62464 21.4493 9.62464 21.5868 9.48714C21.5868 9.48714 21.7243 9.48714 21.7243 9.34964C21.8618 9.34964 21.8618 9.21214 21.9993 9.21214L22.1368 9.07464C22.2743 9.07464 22.2743 8.93714 22.4118 8.79964L22.5493 8.66215L22.8243 8.38715L22.9618 8.24965C22.9618 8.11215 23.0993 8.11215 23.0993 7.97465C23.0993 7.97465 23.0993 7.83715 23.2368 7.83715C23.2368 7.69965 23.3743 7.56215 23.3743 7.42465V7.28715C24.1993 7.69965 24.7493 8.66214 24.7493 9.76214V24.8871C24.7493 26.3996 23.5118 27.6371 21.9993 27.6371H10.9993C9.4868 27.6371 8.2493 26.3996 8.2493 24.8871V9.62464Z" fill="#7B1984"/>
<path d="M12.3756 21.9992H15.1256C15.9506 21.9992 16.5006 21.4492 16.5006 20.6242C16.5006 19.7992 15.9506 19.2492 15.1256 19.2492H12.3756C11.5506 19.2492 11.0006 19.7992 11.0006 20.6242C11.0006 21.4492 11.5506 21.9992 12.3756 21.9992ZM12.3756 16.4992H20.6256C21.4506 16.4992 22.0006 15.9492 22.0006 15.1242C22.0006 14.2992 21.4506 13.7492 20.6256 13.7492H12.3756C11.5506 13.7492 11.0006 14.2992 11.0006 15.1242C11.0006 15.9492 11.5506 16.4992 12.3756 16.4992Z" fill="#7B1984"/>
</svg>
